# xmcd CD database file generated by Grip 2.94
# 
# Track frame offsets:
#       150
#       15652
#       27550
#       47042
#       64702
#       88470
#       104285
#       127112
#       138260
#       154515
# 
# Disc length: 2360 seconds
# 
# Revision: 3
# Processed by: cddbd v1.4b41PL1 Copyright (c) Steve Scherf et al.
# Submitted via: Grip 2.94
# 
DISCID=8609360a
DTITLE=B.B. King - Classics
DYEAR=1900
DGENRE=
TTITLE0=How Blue Can You Get
TTITLE1=Paying The Cost To Be The Boss
TTITLE2=Sweet Sixteen
TTITLE3=Evil Child
TTITLE4=You've Done Lost Your Good Thing Now
TTITLE5=The Letter
TTITLE6=Everyday I Have The Blues
TTITLE7=Catfish Blues
TTITLE8=It's My Own Fault Baby
TTITLE9=The Thrill Is Gone
EXTD=
EXTT0=
EXTT1=
EXTT2=
EXTT3=
EXTT4=
EXTT5=
EXTT6=
EXTT7=
EXTT8=
EXTT9=
PLAYORDER=
